<svg width="400" height="400" viewBox="0 0 400 400" fill="none" xmlns="http://www.w3.org/2000/svg">
<path d="M399.904 151.414C395.641 151.414 391.382 151.366 387.119 151.424C375.799 151.582 364.478 151.842 353.158 151.962C342.048 152.082 330.943 152.087 319.834 152.126C318.834 152.126 317.829 151.996 316.828 151.967C315.419 151.924 314.281 152.597 314.291 154.083C314.332 159.53 314.543 164.978 314.699 170.426C314.704 170.643 314.832 170.849 314.451 171.205C314.277 170.445 313.951 169.69 313.946 168.931C313.905 164.122 313.873 159.314 313.974 154.511C314.011 152.712 313.602 151.664 311.707 151.967C310.119 152.217 307.839 151.005 307.742 154.323C307.591 159.694 307.889 164.969 309.702 170.051C309.839 170.436 310.129 170.758 310.22 171.171C307.931 169.431 307.981 166.652 307.614 164.161C307.1 160.641 306.971 157.054 306.513 153.52C306.435 152.933 305.609 152.179 304.998 152.005C304.09 151.746 303.062 151.938 301.864 151.938C301.864 154.732 301.869 157.266 301.864 159.805C301.85 163.569 302.011 167.354 301.749 171.099C301.575 173.58 299.877 175.811 300.46 178.514C300.717 179.701 300.731 180.952 300.667 182.183C299.753 178.841 299.73 175.523 300.098 172.013C300.648 166.791 300.506 161.483 300.529 156.213C300.533 154.842 300.056 153.472 299.836 152.284C298.294 152.15 297.124 152.034 295.954 151.953C294.233 151.832 292.971 152.174 293.045 154.482C293.145 157.655 293.104 160.834 293.045 164.007C292.948 169.041 292.838 174.071 292.632 179.1C292.498 182.365 293.93 184.885 295.72 187.332C296.192 187.977 296.711 188.799 296.739 189.558C296.954 195.795 297.073 202.031 297.193 208.268C297.234 210.321 296.849 212.206 294.885 213.167C296.702 205.291 295.119 197.329 295.091 189.193C294.43 189.414 293.958 189.573 293.178 189.833C292.971 184.115 290.374 178.999 291.131 173.013C291.916 166.791 291.388 160.382 291.379 154.054C291.379 153.385 290.993 152.722 290.759 151.967C289.736 151.967 288.731 151.712 287.951 152.044C287.272 152.332 286.386 153.284 286.386 153.938C286.386 159.05 286.547 164.166 286.735 169.272C286.983 176.134 287.221 183 287.616 189.852C287.873 194.352 288.392 198.839 288.401 203.392C288.401 201.151 285.969 199.642 287.125 196.882C287.735 195.42 287.024 193.304 286.781 191.506C286.405 188.746 285.624 186.015 285.537 183.25C285.239 173.729 285.17 164.204 284.996 154.684C284.973 153.448 285.175 152.044 283.303 151.919C281.513 151.799 280.031 151.962 280.044 154.347C280.054 155.847 280.219 157.348 280.228 158.843C280.269 166.618 280.292 174.393 280.301 182.168C280.311 187.674 280.453 193.184 280.214 198.68C280.1 201.248 281.022 204.32 279.049 206.34C275.639 209.821 276.92 214.677 275.226 218.678C272.556 224.986 269.22 230.727 265.03 236.045C262.148 239.705 260.092 244.114 257.059 247.605C252.094 253.307 246.721 258.64 241.329 263.914C239.319 265.881 236.96 268.04 234.427 268.694C230.591 269.684 226.461 269.699 222.464 269.66C216.302 269.598 210.134 269.223 203.981 268.8C201.053 268.598 198.727 269.502 196.616 271.593C195.675 272.526 194.349 273.036 192.711 274.031C195.698 275.329 198.327 274.647 200.856 274.757C203.43 274.863 206.014 274.781 208.593 274.781C208.625 275.055 208.661 275.329 208.693 275.604C206.399 275.902 203.981 276.844 201.833 276.387C194.688 274.873 187.567 276.132 180.449 276.089C155.289 275.94 130.124 276.08 104.964 276.132C103.45 276.132 101.931 276.257 100.426 276.455C98.5763 276.695 97.7962 276.003 97.8054 273.983C97.8559 265.328 97.81 256.673 97.8146 248.013C97.8146 238.878 97.8238 229.742 97.8559 220.606C97.8559 219.514 98.0486 218.423 98.6773 217.36C98.4616 221.116 98.0807 224.866 98.0624 228.621C98.0027 243.128 98.0624 257.635 98.0807 272.142C98.0807 275.238 98.3239 275.32 101.247 274.988C103.518 274.728 105.827 274.801 108.116 274.796C131.138 274.772 154.16 274.781 177.182 274.724C181.601 274.714 186.043 274.704 190.435 274.238C193.895 273.873 196.097 270.983 198.424 268.155C196.923 268.228 195.423 268.333 193.922 268.367C187.663 268.502 181.399 268.704 175.14 268.723C157.854 268.781 140.568 268.766 123.282 268.771C118.643 268.771 113.999 268.761 109.36 268.752C106.419 268.742 106.061 268.415 106.129 265.285C106.203 261.943 106.552 258.596 106.524 255.259C106.46 248.153 106.194 241.051 106.084 233.944C106.015 229.458 106.111 224.972 106.051 220.486C106.019 218.259 105.68 216.033 105.698 213.807C105.73 210.143 106.006 206.479 106.056 202.81C106.125 197.949 106.074 193.088 106.198 188.164C106.235 188.919 106.304 189.674 106.304 190.429C106.322 200.767 106.327 211.105 106.341 221.447C106.345 226.448 105.822 231.53 106.483 236.44C107.612 244.821 107.703 253.197 107.694 261.606C107.694 262.006 107.722 262.414 107.662 262.809C107.225 265.636 108.383 267.053 111.136 267.059C126.582 267.069 142.032 267.006 157.478 267.093C176.122 267.194 194.762 267.362 213.406 267.622C218.729 267.694 224.048 268.175 229.371 268.478C232.445 268.651 235.212 267.915 237.603 265.737C239.122 264.357 240.792 263.16 242.178 262.058C232.261 262.058 222.272 262.111 212.282 262.049C194.097 261.929 175.911 261.741 157.726 261.563C143.895 261.429 130.065 261.193 116.234 261.174C113.797 261.174 113.348 260.303 113.352 257.986C113.412 229.694 113.38 201.397 113.371 173.104C113.371 167.041 113.357 160.983 113.389 154.919C113.398 153.198 113.472 151.861 111.076 151.861C108.626 151.861 108.548 153.208 108.607 155.049C108.662 156.607 108.617 158.165 108.121 159.742C107.859 157.208 107.598 154.679 107.332 152.121C106.244 151.933 105.294 151.765 104.161 151.568V173.754C104.051 173.754 103.945 173.763 103.835 173.768C103.794 172.854 103.748 171.946 103.707 171.032C103.592 171.018 103.482 171.008 103.367 170.994L102.688 177.932C102.435 177.913 102.188 177.889 101.935 177.869V152.188C67.8452 151.871 33.9203 151.553 0 151.236V150.27C6.86024 150.27 13.7159 150.356 20.5715 150.255C39.9546 149.967 59.3422 149.572 78.7252 149.284C85.5717 149.183 92.4228 149.284 99.2692 149.284C102.114 149.284 102.936 148.457 102.867 145.418C102.789 141.995 102.431 138.571 102.458 135.152C102.527 126.194 102.775 117.241 102.89 108.283C103.046 96.3154 103.128 84.3427 103.284 72.3699C103.298 71.466 103.619 70.5668 103.798 69.6676C104.069 69.6917 104.344 69.7109 104.615 69.735C104.744 70.6341 104.996 71.5285 104.982 72.4228C104.826 84.6696 104.611 96.9164 104.464 109.168C104.312 121.814 104.221 134.465 104.083 147.115C104.069 148.457 104.308 149.635 105.827 149.635C107.405 149.635 107.446 148.361 107.446 147.087C107.446 135.383 107.424 123.684 107.502 111.981C107.566 102.821 107.69 93.6612 107.951 84.5061C108.029 81.8375 108.662 79.1881 109.085 76.2454C109.961 76.2022 110.925 76.1204 111.888 76.1204C118.891 76.1108 125.893 76.1589 132.896 76.106C142.262 76.0339 151.623 75.8463 160.988 75.7742C168.532 75.7165 176.072 75.7213 183.616 75.755C205.555 75.8608 227.489 76.0435 249.428 76.0916C259.634 76.1156 269.839 75.8848 280.04 75.779C281.687 75.7598 283.353 75.6107 284.964 75.8656C285.459 75.9425 286.129 77.1686 286.138 77.8755C286.249 85.4101 286.262 92.9448 286.271 100.479C286.285 115.308 286.285 130.137 286.281 144.961C286.281 147.168 285.785 149.717 289.332 149.039C289.708 148.967 290.167 149.361 291.025 149.726C291.186 148.308 291.443 147.053 291.452 145.793C291.503 137.215 291.521 128.642 291.516 120.064C291.507 104.312 291.425 88.5596 291.503 72.8075C291.516 70.3552 290.851 69.5474 288.525 69.7302C284.955 70.009 281.361 70.1052 277.782 70.1004C274.052 70.1004 270.321 69.7975 266.59 69.7782C251.906 69.7109 237.222 69.7302 222.538 69.6436C219.115 69.6244 215.696 69.307 212.186 68.8743C212.883 68.73 213.581 68.4511 214.278 68.4559C239.672 68.4559 265.062 68.504 290.456 68.4896C292.145 68.4896 292.691 69.081 292.7 70.8649C292.811 95.2143 292.98 119.559 293.136 143.903C293.136 144.543 293.109 145.187 293.15 145.827C293.375 149.294 294.352 149.885 297.422 148.553C297.858 148.366 298.464 148.616 299.184 148.678C299.207 148.298 299.294 147.611 299.29 146.923C299.125 131.075 298.955 115.231 298.771 99.3831C298.643 88.2566 298.482 77.135 298.34 66.0133C298.29 62.0657 298.17 62.0032 294.55 62.008C270.688 62.0368 246.831 62.0272 222.969 62.0368C215.705 62.0368 208.446 62.133 201.182 62.0368C197.786 61.9936 194.514 62.133 191.678 64.4602C193.105 62.1811 194.945 61.1377 197.639 61.1425C206.105 61.1569 214.567 60.8203 223.033 60.7819C236.602 60.7193 250.167 60.8011 263.736 60.8059C269.426 60.8059 275.116 60.7145 280.806 60.7819C284.872 60.8299 288.938 61.0944 293.008 61.205C293.815 61.229 294.637 61.0463 295.435 60.8684C298.487 60.1712 299.51 60.9357 299.57 64.2054C299.726 72.6873 299.873 81.1692 299.932 89.6511C300.01 100.633 299.946 111.611 300.042 122.593C300.102 129.464 300.322 136.33 300.52 143.201C300.566 144.706 300.731 146.226 301.011 147.702C301.456 150.048 303.493 149.515 304.87 149.553C306.407 149.592 305.889 148.241 305.838 147.082C305.65 142.764 305.714 138.432 305.655 134.104C305.508 123.305 305.31 112.505 305.196 101.706C305.131 95.4114 305.191 89.1173 305.191 82.8232C305.191 73.5864 305.191 64.3496 305.191 54.5214H266.792C266.792 54.2618 266.797 54.0021 266.801 53.7425H305.577C305.577 62.1426 305.577 70.4226 305.577 78.6977C305.577 82.0299 305.489 85.3668 305.558 88.6942C305.843 102.912 306.127 117.131 306.508 131.349C306.65 136.609 307.082 141.86 307.343 147.12C307.43 148.856 308.247 149.414 309.849 149.332C312.024 149.217 314.217 149.419 316.383 149.221C316.993 149.169 317.829 148.293 318.03 147.62C318.315 146.673 318.104 145.562 318.352 144.519V149.144C327.167 149.702 335.812 148.76 344.471 149.178C353.222 149.601 362.009 149.27 370.779 149.27L370.792 150.284H357.26C357.26 150.582 357.26 150.875 357.265 151.174C371.508 150.847 385.756 150.52 400 150.193C399.972 150.606 399.945 151.02 399.917 151.438L399.904 151.414ZM115.477 83.7849C115.504 83.5493 115.536 83.3137 115.564 83.0829C116.147 83.0348 116.73 82.9338 117.308 82.9434C122.415 83.0637 127.522 83.3233 132.63 83.3281C180.427 83.3762 228.223 83.381 276.025 83.4002C279.319 83.4002 279.31 83.405 279.333 86.8767C279.48 106.576 279.645 126.281 279.76 145.981C279.769 147.832 279.967 148.952 282.215 148.933C284.358 148.909 285.046 148.091 284.987 145.995C284.831 140.595 284.679 135.196 284.656 129.791C284.592 113.202 284.597 96.6135 284.569 80.02C284.569 79.1785 284.569 78.3419 284.569 77.5533H110.622C110.516 78.9333 110.429 80.1065 110.333 81.4144C109.667 81.2605 109.218 81.1596 108.777 81.0586C108.571 83.6695 108.213 86.1169 108.208 88.5692C108.158 106.12 108.162 123.67 108.194 141.22C108.194 143.365 108.511 145.505 108.562 147.649C108.594 148.904 109.08 149.27 110.232 149.313C112.806 149.414 113.371 149.053 113.352 146.332C113.311 141.297 113.077 136.263 112.994 131.229C112.802 119.112 112.613 106.99 112.517 94.8729C112.49 91.209 112.779 87.545 112.912 83.8811C112.935 83.2127 112.912 82.5443 112.912 81.8808C113.132 81.8231 113.348 81.7654 113.568 81.7077C113.898 82.6405 114.509 83.5685 114.518 84.5061C114.72 104.682 114.853 124.853 115.004 145.029C115.029 148.135 116.465 149.367 119.313 148.726C119.432 148.697 119.529 148.548 119.446 148.62C119.446 140.297 119.446 132.142 119.446 123.987C119.437 113.169 119.409 102.35 119.437 91.5311C119.437 90.4348 119.754 89.3433 119.919 88.247L120.676 88.2278C120.942 89.6511 121.433 91.0743 121.438 92.4976C121.497 109.731 121.474 126.959 121.52 144.192C121.52 145.827 121.814 147.462 121.988 149.26C122.934 149.26 123.613 149.279 124.287 149.26C128.454 149.116 128.027 148.635 128.032 145.25C128.032 142.22 127.72 139.191 127.692 136.157C127.623 128.464 127.674 120.771 127.6 113.077C127.568 109.572 127.238 106.067 127.27 102.561C127.288 100.388 126.522 98.0224 128.215 95.5509C128.706 96.5414 129.17 97.1088 129.257 97.7339C129.486 99.3831 129.661 101.056 129.665 102.72C129.72 116.746 129.716 130.772 129.78 144.793C129.785 146.255 130.092 147.721 130.225 148.938C131.969 149.029 133.346 149.106 135.232 149.207V105.48C136.631 105.48 137.531 105.47 138.43 105.48C152.027 105.629 165.619 105.85 179.215 105.913C194.739 105.985 210.263 105.922 225.791 105.918C227.09 105.918 228.393 105.922 229.692 105.908C238.548 105.797 247.409 105.682 256.265 105.576C258.138 105.552 258.803 106.398 258.775 108.495C258.656 118.188 258.697 127.892 258.743 137.585C258.762 141.235 258.95 144.88 259.065 148.606H264.41C264.41 147.678 264.429 146.966 264.41 146.25C264.098 136.59 263.718 126.935 263.493 117.275C263.36 111.466 263.47 105.658 263.47 99.3975C259.693 99.6091 256.605 99.8736 253.508 99.9409C243.963 100.148 234.418 100.402 224.874 100.407C212.195 100.407 199.511 100.191 186.832 100.056C172.006 99.8976 157.184 99.7149 142.358 99.5562C139.297 99.5226 136.237 99.5899 133.18 99.4889C132.272 99.4601 131.372 99.0129 130.473 98.7532C130.519 98.6042 130.56 98.4551 130.606 98.306H264.131C264.3 99.3543 264.553 100.277 264.589 101.21C264.943 110.226 265.232 119.246 265.594 128.262C265.842 134.484 266.237 140.701 266.434 146.928C266.498 148.885 267.283 149.356 268.986 149.284C270.876 149.207 270.775 147.865 270.748 146.606C270.715 145.019 270.436 143.437 270.417 141.85C270.234 126.156 270.055 110.466 269.963 94.7719C269.949 92.8246 269.284 92.2235 267.535 92.3437C264.576 92.5457 261.607 92.7476 258.642 92.7284C252.617 92.6851 246.592 92.387 240.572 92.3726C214.494 92.3245 188.416 92.387 162.338 92.3101C150.732 92.2764 139.123 92.0408 127.518 91.8244C125.898 91.7956 124.283 91.3532 122.663 91.1032C122.69 90.8387 122.713 90.5694 122.741 90.305C123.622 90.2569 124.503 90.1607 125.384 90.1752C133.217 90.2858 141.046 90.4829 148.879 90.5262C183.735 90.7233 218.596 90.8772 253.457 91.0407C258.734 91.0647 264.016 91.1705 269.284 90.983C271.399 90.906 271.941 91.8869 272.005 93.7141C272.156 97.8685 272.413 102.023 272.432 106.177C272.487 119.318 272.436 132.464 272.468 145.606C272.468 146.812 272.771 148.015 272.918 149.144C274.882 148.938 276.438 148.769 278.067 148.596C278.103 147.976 278.159 147.51 278.159 147.038C278.14 131.089 278.122 115.14 278.099 99.1908C278.099 97.7771 278.159 96.3635 278.081 94.9546C277.906 91.6754 278.631 88.3047 277.47 85.0639C276.456 85.0639 275.694 85.0639 274.933 85.0639C240.673 85.0783 206.408 85.1408 172.148 85.0783C154.954 85.0447 137.76 84.8091 120.566 84.5927C118.868 84.5735 117.179 84.0638 115.486 83.7801L115.477 83.7849ZM208.358 228.992C208.358 228.852 208.358 228.713 208.358 228.573C217.201 228.573 226.039 228.631 234.882 228.506C236.167 228.487 237.841 227.967 238.654 227.03C244.619 220.115 250.451 213.076 256.206 205.969C257.105 204.859 257.858 203.205 257.876 201.791C258.009 190.092 257.986 178.389 257.931 166.685C257.908 162.295 257.725 157.905 257.463 153.525C257.431 152.977 256.513 152.126 255.921 152.039C252.599 151.553 251.452 152.919 252.048 156.395C252.145 156.944 252.246 157.497 252.255 158.045C252.402 166.964 252.613 175.888 252.649 184.808C252.672 190.395 252.498 195.987 252.259 201.575C252.204 202.863 251.828 204.363 251.094 205.359C247.331 210.455 243.385 215.408 239.544 220.442C237.952 222.529 236.056 223.246 233.427 223.241C220.519 223.202 207.606 223.433 194.693 223.563C178.339 223.726 161.989 223.832 145.634 224.092C143.377 224.13 142.725 223.371 142.711 221.135C142.638 207.445 142.459 193.751 142.358 180.062C142.294 171.489 142.234 162.911 142.321 154.337C142.344 152.078 141.303 151.919 139.632 151.924C138.035 151.929 137.04 152.126 137.072 154.232C137.269 165.671 137.407 177.115 137.485 188.554C137.581 202.656 137.609 216.759 137.604 230.862C137.604 231.42 136.962 231.973 136.617 232.531C136.397 232.43 136.177 232.324 135.952 232.223C135.791 231.141 135.493 230.064 135.484 228.982C135.296 207.21 135.131 185.438 134.975 163.666C134.947 159.843 134.975 156.016 134.975 152.246C130.299 151.428 129.193 152.563 129.941 157.064C130.032 157.612 130.12 158.17 130.12 158.723C130.138 185.25 130.17 211.783 130.115 238.31C130.115 239.834 129.39 241.359 129.005 242.883C128.688 242.84 128.371 242.801 128.055 242.758C128.055 241.71 128.055 240.657 128.055 239.608C128.05 211.638 128.046 183.663 128.032 155.693C128.032 152.727 126.605 151.539 123.81 152.145C123.227 152.27 122.658 152.453 122.08 152.611V251.514C123.227 251.581 123.824 251.648 124.42 251.648C150.329 251.807 176.242 251.975 202.15 252.096C205.5 252.11 208.849 251.749 212.199 251.769C220.22 251.817 228.237 251.995 236.254 252.105C238.778 252.144 240.778 251.403 241.953 248.711C242.628 247.157 243.853 245.859 244.862 244.474C248.152 239.94 251.507 235.454 254.747 230.881C259.078 224.755 263.075 218.346 267.696 212.47C271.05 208.205 272.652 203.839 272.198 198.3C271.629 191.304 271.463 184.269 271.303 177.244C271.151 170.594 271.266 163.94 271.193 157.29C271.174 155.568 270.89 153.852 270.72 152.092C269.238 152.251 267.985 152.39 266.402 152.558C266.576 156.155 266.879 159.646 266.898 163.137C266.962 176.119 266.976 189.107 266.884 202.089C266.875 203.58 266.31 205.238 265.53 206.503C264.475 208.22 262.928 209.6 261.657 211.182C258.376 215.269 255.095 219.341 252.195 223.779C249.373 228.097 245.867 231.929 242.664 235.978C242.449 235.795 242.233 235.613 242.022 235.43C243.458 233.54 244.904 231.66 246.322 229.756C251.644 222.625 256.917 215.456 262.295 208.373C264.154 205.931 265.342 203.459 265.314 200.17C265.191 185.423 265.259 170.676 265.259 155.929C265.259 155.29 265.269 154.645 265.204 154.006C264.892 150.919 262.607 152.145 261.006 151.953C259.294 151.751 259.198 153.097 259.23 154.323C259.289 156.314 259.588 158.3 259.597 160.285C259.647 174.23 259.62 188.178 259.689 202.123C259.698 204.137 259.009 205.647 257.61 206.897C250.309 213.422 244.72 221.51 238.874 229.367C238.314 230.122 237.139 230.708 236.212 230.775C232.335 231.05 228.444 231.194 224.557 231.203C205.513 231.266 186.475 231.242 167.431 231.319C160.791 231.348 154.156 231.627 147.516 231.684C144.859 231.708 142.202 231.434 139.54 231.295C139.508 230.977 139.472 230.66 139.439 230.343C140.619 230.093 141.798 229.621 142.982 229.617C166.068 229.559 189.15 229.554 212.236 229.54C212.966 229.54 213.695 229.54 214.425 229.54C214.425 229.352 214.425 229.16 214.429 228.972H208.34L208.358 228.992ZM226.232 199.185C226.232 192.593 226.232 186.298 226.232 180.004C226.232 171.994 226.241 163.978 226.246 155.968C226.246 155.328 226.273 154.679 226.209 154.044C226.062 152.616 225.562 151.837 223.896 151.885C219.023 152.029 214.14 151.904 209.262 151.953C206.059 151.986 202.861 152.231 199.663 152.217C191.417 152.174 183.175 152.025 174.929 151.943C171.561 151.909 171.506 151.938 171.556 155.592C171.611 159.583 171.859 163.574 171.887 167.565C171.951 177.341 171.933 187.116 171.96 196.891C171.96 197.656 172.024 198.42 172.061 199.19H226.241L226.232 199.185ZM272.932 152.13C272.932 158.064 272.831 163.868 272.955 169.671C273.193 181.173 273.62 192.674 273.795 204.176C273.818 205.676 273.065 207.369 272.234 208.667C270.807 210.907 268.958 212.845 267.425 215.019C262.125 222.529 256.903 230.102 251.612 237.623C248.882 241.503 245.652 245.071 243.421 249.239C241.512 252.807 239.007 253.947 235.506 253.923C212.998 253.769 190.494 253.591 167.986 253.48C153.077 253.408 138.164 253.432 123.255 253.428C121.897 253.428 120.736 253.543 120.726 251.398C120.699 244.604 120.391 237.81 120.373 231.011C120.355 225.578 120.708 220.139 120.694 214.706C120.671 206.388 120.474 198.069 120.341 189.751C120.167 178.47 119.969 167.19 119.813 155.91C119.758 151.736 119.799 151.731 115.729 151.977C115.592 151.986 115.463 152.106 115 152.342C115 156.362 114.99 160.545 115 164.728C115.036 183.769 115.101 202.805 115.11 221.846C115.114 233.627 115.064 245.407 114.99 257.183C114.977 259.068 115.481 259.851 117.482 259.851C158.772 259.818 200.062 259.871 241.352 259.842C242.646 259.842 244.302 259.568 245.174 258.726C248.52 255.495 251.86 252.187 254.737 248.509C258.28 243.979 261.157 238.868 264.709 234.343C267.545 230.727 270.491 227.265 271.964 222.774C273.322 218.63 274.561 214.437 275.855 210.268C275.612 210.167 275.364 210.061 275.121 209.96C274.9 210.234 274.63 210.475 274.474 210.782C269.706 220.317 263.098 228.516 257.055 237.113C252.929 242.984 248.726 248.797 244.408 254.514C243.1 256.245 241.283 257.558 239.7 259.063C241.503 256.077 243.715 253.562 245.697 250.869C249.658 245.494 253.521 240.041 257.371 234.574C260.06 230.756 262.648 226.857 265.305 223.01C269.339 217.168 273.4 211.35 277.415 205.493C277.791 204.94 278.071 204.205 278.117 203.531C278.328 200.589 278.553 197.636 278.562 194.684C278.604 182.106 278.572 169.527 278.567 156.944C278.567 151.794 278.365 151.611 272.941 152.126L272.932 152.13ZM152.15 152.179C152.15 156.636 152.187 161.002 152.141 165.368C152.063 173.258 151.843 181.154 151.852 189.044C151.861 196.396 152.105 203.753 152.205 211.105C152.256 214.619 152.215 214.619 155.61 214.619C181.298 214.624 206.986 214.485 232.674 214.778C236.947 214.826 239.732 213.326 242.233 210.191C244.082 207.869 245.248 205.421 245.174 202.209C244.991 194.155 245.078 186.092 245.069 178.033C245.06 171.465 245.096 164.892 245.055 158.324C245.041 156.434 244.835 154.549 244.711 152.611C243.623 152.395 242.784 152.227 241.678 152.005C241.678 153.169 241.678 154.121 241.678 155.068C241.687 170.21 241.471 185.361 241.824 200.493C241.944 205.565 239.319 208.022 236.121 210.537C236.474 209.768 237.084 209.148 237.41 208.393C238.163 206.647 240.117 205.854 240.095 203.378C239.948 187.193 240.012 171.008 240.012 154.823C240.012 153.9 240.012 152.977 240.012 151.929C238.8 151.929 237.965 151.929 237.126 151.929C234.102 151.924 233.973 152.049 233.95 155.352C233.812 172.244 233.652 189.135 233.592 206.032C233.588 207.801 233.009 208.234 231.5 208.224C225.153 208.196 218.807 208.248 212.461 208.253C195.643 208.258 178.82 208.253 162.003 208.253C160.676 208.253 159.35 208.253 157.873 208.253C157.873 207.734 157.873 207.022 157.873 206.316C157.863 189.809 157.859 173.306 157.85 156.799C157.85 153.241 155.948 151.698 152.146 152.169L152.15 152.179ZM152.215 122.521C152.215 130.921 152.201 139.311 152.251 147.707C152.251 148.216 152.674 148.995 153.091 149.178C155.477 150.246 157.818 148.572 157.841 145.793C157.877 140.985 157.845 136.176 157.841 131.368C157.841 130.464 157.841 129.565 157.841 128.661C158.13 128.632 158.419 128.603 158.708 128.57C158.864 129.478 159.125 130.378 159.157 131.291C159.332 136.806 159.414 142.321 159.644 147.832C159.671 148.471 160.355 149.558 160.823 149.616C163.274 149.914 164.765 148.317 164.774 145.658C164.783 142.408 164.774 139.158 164.774 136.167H227.517C227.517 139.215 227.517 141.845 227.517 144.476C227.517 147.143 228.72 148.636 231.128 148.957C231.266 148.976 231.399 148.995 231.881 149.068V131.339C230.876 131.19 229.761 130.892 228.641 130.873C216.421 130.685 204.206 130.503 191.986 130.392C182.276 130.305 172.566 130.339 162.856 130.277C162.03 130.272 161.209 129.93 160.387 129.743C160.438 129.647 160.488 129.551 160.539 129.45H234.336V148.914C236.428 148.577 238.144 148.298 240.021 147.995C240.021 140.167 240.021 132.407 240.021 124.646C240.021 122.901 238.805 123.107 237.75 123.098C223.699 122.944 209.653 122.79 195.602 122.66C191.32 122.622 187.039 122.675 182.758 122.651C178.017 122.627 173.277 122.54 168.542 122.521C163.067 122.497 157.593 122.516 152.219 122.516L152.215 122.521ZM149.773 152.034C148.874 151.991 148.424 151.957 147.975 151.953C144.056 151.914 143.959 151.977 144.001 156.083C144.097 165.358 144.285 174.638 144.354 183.914C144.437 195.53 144.437 207.147 144.478 218.764C144.478 219.322 144.455 219.894 144.538 220.442C144.717 221.644 145.107 222.572 146.589 222.303C147.782 222.092 149.003 221.967 150.214 221.952C164.035 221.765 177.857 221.543 191.674 221.462C205.816 221.375 219.959 221.462 234.102 221.351C235.221 221.342 236.676 220.726 237.396 219.861C241.393 215.096 245.262 210.205 249.056 205.258C249.846 204.229 250.562 202.777 250.566 201.517C250.644 186.053 250.594 170.594 250.557 155.131C250.557 153.467 250.392 151.9 248.148 151.914C245.656 151.929 246.335 153.828 246.331 155.179C246.299 167.195 246.299 179.216 246.358 191.232C246.377 194.939 246.569 198.646 246.762 202.349C246.886 204.729 246.234 206.695 244.605 208.402C243.05 210.032 241.375 211.638 240.237 213.571C238.874 215.894 237.121 216.437 234.716 216.432C207.349 216.375 179.977 216.399 152.609 216.389C151.806 216.389 151.003 216.307 149.764 216.24V152.029L149.773 152.034ZM251.319 113.207C251.319 118.977 251.31 124.391 251.319 129.801C251.332 135.248 251.355 140.696 251.415 146.144C251.429 147.346 251.149 148.894 252.975 148.952C257.009 149.082 257.449 148.808 257.417 146.101C257.371 142.35 257.124 138.6 257.087 134.849C257.013 126.675 257.027 118.506 256.995 110.332C256.981 107.307 256.848 107.153 254.049 107.211C246.877 107.365 239.704 107.697 232.537 107.677C207.399 107.605 182.267 107.418 157.129 107.264C151.32 107.23 145.506 107.326 139.71 107C137.604 106.879 137.026 107.269 137.04 109.433C137.113 121.449 137.081 133.469 137.085 145.49C137.085 148.458 138.47 149.875 141.238 149.741C141.523 149.726 141.803 149.616 142.298 149.496C142.298 148.327 142.298 147.221 142.298 146.12C142.307 135.946 142.39 125.766 142.275 115.597C142.248 113.217 142.964 112.577 145.143 112.702C149.833 112.971 154.532 113.092 159.226 113.106C184.226 113.169 209.226 113.178 234.23 113.207C239.649 113.212 245.069 113.207 251.314 113.207H251.319ZM166.041 201.223C165.706 201.252 165.371 201.281 165.036 201.31C164.939 200.358 164.76 199.406 164.756 198.454C164.742 183.87 164.728 169.282 164.793 154.698C164.802 152.727 164.435 151.779 162.273 151.861C160.328 151.933 159.116 152.078 159.148 154.645C159.35 171.383 159.442 188.121 159.575 204.859C159.575 205.33 159.658 205.796 159.713 206.359C160.731 206.551 161.691 206.897 162.645 206.883C167.339 206.825 172.034 206.585 176.728 206.57C194.087 206.508 211.447 206.513 228.806 206.484C232.161 206.479 232.202 206.465 232.206 202.998C232.22 186.89 232.197 170.782 232.239 154.674C232.243 152.871 231.972 151.856 229.898 151.842C227.787 151.828 227.48 152.977 227.535 154.693C227.664 158.766 227.87 162.839 227.893 166.911C227.948 176.768 227.925 186.625 227.925 196.482C227.925 199.752 226.319 201.401 223.107 201.43C222.955 201.43 222.799 201.43 222.648 201.43C205.747 201.43 188.847 201.43 171.946 201.425C171.226 201.425 170.506 201.324 169.785 201.272C169.978 200.142 170.239 199.305 170.239 198.468C170.258 184.125 170.253 169.782 170.23 155.439C170.226 151.654 169.831 151.371 166.05 152.313V201.228L166.041 201.223ZM248.841 115.424C213.681 115.154 178.94 114.89 143.987 114.626C143.987 118.068 143.987 121.415 143.987 124.761C143.987 131.892 143.959 139.018 144.01 146.149C144.033 149.284 144.157 149.14 147.658 149.342C150.163 149.486 150.127 148.063 150.118 146.231C150.085 138.46 150.168 130.69 150.076 122.925C150.053 120.891 150.673 120.343 152.573 120.391C161.42 120.622 170.267 120.79 179.119 120.823C199.144 120.896 219.17 120.867 239.195 120.891C240.003 120.891 240.806 120.987 241.797 121.049V148.644C241.999 148.832 242.201 149.015 242.403 149.202C243.431 148.399 244.458 147.596 245.505 146.779C246.973 148.446 248.357 149.167 249.658 148.943C249.382 137.734 249.107 126.502 248.836 115.424H248.841ZM166.458 137.499C166.458 140.321 166.504 143.274 166.44 146.226C166.408 147.712 166.692 148.712 168.344 148.803C170.166 148.904 170.235 147.611 170.262 146.288C170.294 144.673 170.272 143.057 170.272 141.442C170.561 141.442 170.845 141.437 171.134 141.432C171.249 142.826 171.469 144.221 171.455 145.615C171.442 147.236 171.992 147.933 173.608 147.899C176.32 147.837 179.036 147.87 181.744 148C185.91 148.197 190.068 148.697 194.234 148.736C199.332 148.784 204.43 148.457 209.529 148.351C212.539 148.289 215.558 148.26 218.564 148.366C220.89 148.447 223.208 148.765 225.934 149.015V138.518C223.892 138.369 221.712 138.09 219.532 138.061C201.953 137.831 184.364 138.456 166.463 137.499H166.458ZM270.789 119.424C270.885 119.395 270.986 119.367 271.083 119.338V107.125C270.986 107.125 270.885 107.125 270.789 107.125V119.419V119.424ZM209.781 68.6098C206.61 68.4223 203.439 68.0857 200.268 68.0857C193.794 68.0857 187.319 68.3069 180.844 68.3502C172.878 68.4031 164.907 68.3742 156.941 68.3694C154.679 68.3694 152.412 68.3934 150.154 68.2684C147.328 68.1146 144.538 66.7394 141.66 68.2396C140.977 68.5954 140.008 68.4031 139.169 68.3934C129.56 68.2684 119.951 68.1098 110.342 68.0184C109.342 68.0088 108.341 68.379 107.341 68.5714L107.46 69.3503H209.781C209.781 69.1051 209.781 68.855 209.781 68.6098ZM312.735 43.0103C278.324 42.991 243.912 42.9862 209.501 42.9382C205.468 42.9333 201.429 42.5583 197.396 42.5968C195.748 42.6112 193.725 42.7602 192.536 43.7315C190.224 45.626 188.452 48.2273 186.3 50.3718C185.415 51.2518 184.143 52.2519 183.042 52.2663C174.493 52.3432 165.94 52.1653 157.386 52.1172C154.11 52.098 150.636 51.3816 148.08 54.5118C148.002 54.608 147.828 54.6224 147.695 54.6753C148.222 54.7282 148.842 54.7474 149.154 54.4301C150.544 53.0068 152.205 52.9347 154.004 52.9635C163.242 53.1318 172.483 53.2424 181.725 53.3145C182.744 53.3241 184.038 53.3193 184.731 52.7231C186.644 51.069 188.301 49.0928 190.072 47.2512C192.022 45.2221 193.573 42.8276 197.043 43.193C201.663 43.6738 206.344 43.6306 210.997 43.6402C214.723 43.6498 218.449 43.2844 222.175 43.2988C227.397 43.3228 232.624 43.6642 237.846 43.6498C245.014 43.6305 252.181 43.3084 259.349 43.2795C275.869 43.2122 292.384 43.2266 308.903 43.2507C310.542 43.2507 312.18 43.5488 313.85 43.7075C313.928 44.5105 313.983 45.0875 314.038 45.6597L314.112 45.6356V43.0728C313.483 43.0391 313.107 43.0055 312.73 43.0055L312.735 43.0103ZM216.283 276.31C213.484 275.969 211.543 277.835 209.671 279.455C206.174 282.484 202.815 284.287 197.768 284.182C174.011 283.686 150.246 283.898 126.481 283.864C121.259 283.855 116.037 283.864 110.815 283.864C111.255 284.494 111.723 284.614 112.196 284.619C116.931 284.638 121.667 284.619 126.407 284.653C151.196 284.826 175.985 285.047 200.769 285.119C202.356 285.119 204.086 284.259 205.513 283.379C209.157 281.128 212.663 278.642 216.228 276.253L216.283 276.315V276.31ZM196.524 53.4011C195.487 53.9733 194.34 54.3964 193.445 55.1465C192.091 56.2861 190.962 57.719 189.632 58.8922C188.989 59.4596 188.104 60.051 187.319 60.0702C181.661 60.2097 176.003 60.2818 170.345 60.2337C158.694 60.1375 147.043 59.9596 135.392 59.7865C133.864 59.7625 132.336 59.5509 130.418 59.3971C129.89 59.7721 128.927 60.4597 127.963 61.1425C128.068 61.4454 128.179 61.7531 128.284 62.0561C129.197 61.8108 130.115 61.5848 131.024 61.3156C131.533 61.1665 132.033 60.7482 132.515 60.777C135.993 60.9982 139.458 61.4406 142.936 61.5512C146.782 61.6714 150.636 61.4935 154.482 61.4887C164.866 61.4743 175.25 61.4791 185.635 61.4887C187.948 61.4887 189.797 60.5703 191.403 58.8297C193.05 57.0458 194.849 55.411 196.584 53.7136C196.565 53.6078 196.542 53.4972 196.524 53.3915V53.4011ZM153.669 294.293C159.084 294.293 164.503 294.279 169.918 294.293C174.268 294.308 178.614 294.342 182.964 294.404C186.566 294.457 190.169 294.587 193.771 294.635C196.074 294.664 198.41 294.337 200.668 294.654C204.531 295.197 207.762 294.563 210.524 291.351C211.442 290.288 213.241 289.706 214.691 289.577C217.655 289.307 220.656 289.495 223.956 289.495C223.492 289.177 223.212 288.822 222.923 288.812C220.817 288.73 218.665 288.413 216.614 288.764C214.26 289.163 211.47 287.961 209.653 290.86C207.936 293.596 205.146 294.058 202.2 294.029C196.272 293.967 190.343 294.068 184.414 293.995C180.546 293.952 176.677 293.644 172.805 293.611C169.491 293.582 166.183 293.808 162.87 293.856C159.8 293.904 156.73 293.866 153.656 293.866C153.656 294.005 153.656 294.144 153.656 294.289L153.669 294.293ZM98.7599 176.475V213.086C100.132 210.33 100.462 214.735 101.825 213.196C98.7002 211.052 99.8887 207.691 99.8979 204.71C99.9254 196.074 100.192 187.438 100.306 178.802C100.315 177.98 99.9117 177.153 99.7006 176.331C99.3885 176.379 99.0719 176.427 98.7599 176.475ZM239.548 53.728H209.657C209.657 53.8531 209.657 53.9829 209.657 54.1079H239.461C239.489 53.9829 239.521 53.8531 239.548 53.728ZM111.696 293.284C102.982 293.087 94.272 292.889 85.535 292.697C85.5075 292.538 85.5442 293.077 85.6038 293.082C94.2904 293.457 102.977 293.793 111.664 294.13C111.673 293.851 111.686 293.567 111.696 293.289V293.284ZM100.862 224.092V264.54C100.806 264.54 100.747 264.54 100.692 264.54C100.953 251.081 101.215 237.618 101.481 224.159C101.275 224.135 101.068 224.111 100.862 224.092ZM105.616 306.584H130.762C130.762 306.478 130.762 306.377 130.762 306.271H105.634L105.611 306.584H105.616ZM314.465 146.731V121.213C314.378 121.213 314.286 121.218 314.199 121.223V146.683C314.286 146.697 314.378 146.711 314.465 146.726V146.731ZM86.1224 280.446C86.1224 275.762 86.1453 271.079 86.0948 266.396C86.0902 265.823 85.87 265.088 85.4891 264.708C82.7129 261.953 79.877 259.274 77.0549 256.567C79.0694 259.116 81.2812 261.453 83.5297 263.751C85.122 265.381 85.9847 267.237 85.9067 269.656C85.792 273.252 85.8792 276.854 85.8792 280.45C85.9617 280.45 86.0443 280.45 86.1224 280.446ZM75.8114 269.43C75.8114 274.945 75.8114 280.46 75.8114 285.97C75.8114 291.481 75.8114 296.986 75.8114 302.497C75.8756 302.497 75.9444 302.497 76.0087 302.497V269.333C75.9444 269.367 75.8756 269.401 75.8114 269.43ZM336.748 114.76C336.748 108.529 336.831 102.292 336.707 96.0654C336.661 93.8632 337.313 92.2572 338.845 90.8147C340.933 88.8529 342.888 86.7372 344.898 84.6889C341.993 86.9632 339.433 89.5741 336.904 92.2283C336.624 92.5216 336.413 93.0409 336.413 93.4544C336.386 100.556 336.39 107.658 336.39 114.76C336.51 114.76 336.629 114.76 336.748 114.76ZM60.416 257.25C60.2554 255.543 59.9433 253.831 59.9663 252.124C60.058 245.979 60.2187 239.834 60.4619 233.694C60.5169 232.305 60.9942 230.939 61.2787 229.559C60.8198 230.391 60.2186 231.338 60.1865 232.3C59.9754 239.329 59.8791 246.359 59.7598 253.394C59.7368 254.702 59.7598 256.01 59.7598 257.317C59.98 257.293 60.2003 257.269 60.4206 257.25H60.416ZM331.769 143.076C331.444 142.446 331.118 141.817 330.796 141.187C330.205 140.028 329.204 138.912 329.089 137.705C328.608 132.546 328.383 127.353 328.052 122.179C328.052 122.136 327.837 122.112 327.58 122.04C327.777 126.892 327.979 131.671 328.167 136.455C328.259 138.715 327.818 141.216 330.755 142.076C330.985 142.144 331.04 142.874 331.173 143.298C331.37 143.225 331.572 143.149 331.769 143.076ZM71.7273 248.677C71.8008 250.23 72.5304 251.745 72.9617 253.278C73.1544 253.211 73.3472 253.144 73.5353 253.077C69.9652 246.205 73.1177 238.565 71.2455 231.545C71.3878 237.257 71.452 242.974 71.7273 248.677ZM216.224 276.243C219.289 276.57 221.794 275.666 223.708 272.55C221.932 273.392 220.565 274.296 219.073 274.68C217.495 275.089 215.797 275.012 214.062 275.156C214.92 275.604 215.604 275.955 216.283 276.31L216.224 276.243ZM191.348 0.451768C198.373 0.600826 205.408 0.278668 212.42 0.870092C211.034 0.139227 193.445 -0.437773 191.348 0.451768ZM340.204 47.1647C340.204 49.6698 340.153 52.1749 340.217 54.6753C340.282 57.1227 340.465 59.5702 340.598 62.0176C340.828 62.0032 341.052 61.9839 341.282 61.9695C340.979 57.065 340.676 52.1653 340.373 47.2608C340.318 47.232 340.263 47.1983 340.208 47.1695L340.204 47.1647ZM64.1467 319.412C64.0411 315.166 64.1329 310.921 64.1191 306.67C64.1191 306.141 63.9585 305.612 63.8163 304.737C63.8163 310.642 63.775 316.138 63.8667 321.629C63.8805 322.34 64.5642 323.038 65.0506 323.956C64.6881 322.201 64.1834 320.811 64.1512 319.412H64.1467ZM131.634 293.976H149.787C149.787 293.918 149.787 293.856 149.787 293.798H131.639C131.639 293.856 131.639 293.918 131.639 293.976H131.634ZM314.015 48.9918V70.2639C314.089 70.2639 314.162 70.2639 314.236 70.2639V48.9918C314.162 48.9918 314.089 48.9918 314.015 48.9918ZM121.355 330.837H101.894C101.894 330.88 101.894 330.928 101.894 330.971H121.396C121.383 330.928 121.364 330.88 121.35 330.837H121.355ZM183.905 317.681H165.251V317.797H183.942L183.909 317.681H183.905ZM173.319 329.308H155.33C155.33 329.375 155.33 329.438 155.33 329.505H173.319C173.319 329.438 173.319 329.375 173.323 329.308H173.319ZM346.32 67.1048V82.251C346.476 82.251 346.628 82.251 346.784 82.251V67.0135C346.628 67.0423 346.476 67.076 346.32 67.1048ZM258.555 55.2763C256.481 52.4586 253.93 53.9781 250.947 54.257C253.765 55.5312 256.44 52.8481 258.555 55.2763ZM76.3437 305.93H86.9988C86.9988 305.79 86.9988 305.651 86.9988 305.516H76.3574C76.3528 305.656 76.3482 305.795 76.3437 305.93ZM130.349 321.441H143.303C143.303 321.321 143.303 321.201 143.303 321.081H130.395C130.381 321.201 130.367 321.321 130.354 321.441H130.349ZM218.647 329.514C217.899 327.485 216.641 328.361 215.315 328.962C216.577 331.361 217.123 331.428 218.647 329.514ZM314.382 112.88V104.61C314.295 104.615 314.213 104.619 314.125 104.624V112.87C314.213 112.87 314.295 112.88 314.382 112.885V112.88ZM212.401 329.308H205.279C205.279 329.428 205.279 329.543 205.279 329.664H212.429C212.42 329.543 212.41 329.428 212.406 329.308H212.401ZM329.53 98.6378V107.591C329.636 107.591 329.741 107.596 329.847 107.601V98.6426C329.741 98.6426 329.636 98.6426 329.53 98.6426V98.6378ZM264.007 317.2C265.305 316.777 266.379 316.426 267.448 316.075C265.441 315.341 264.294 315.716 264.007 317.2ZM336.601 26.4841V34.4851C336.725 32.3502 336.89 29.4556 337.06 26.5658C336.909 26.5369 336.753 26.5081 336.601 26.4841ZM206.284 53.7809H198.098C198.098 53.8819 198.103 53.9781 198.107 54.079H206.294C206.294 53.9781 206.289 53.8819 206.284 53.7809ZM289.782 214.22C289.185 214.485 288.745 215.12 288.24 215.605C288.676 215.947 289.112 216.552 289.548 216.552C290.034 216.552 290.525 216.009 291.448 215.427C290.603 214.793 290.034 214.11 289.787 214.22H289.782ZM321.045 164.454C322.385 162.348 322.358 160.853 321.045 158.78V164.454ZM231.83 289.23H224.74C224.74 289.365 224.731 289.5 224.731 289.634H231.748C231.775 289.5 231.803 289.365 231.835 289.23H231.83ZM113.738 293.712H119.455C119.464 293.659 119.469 293.601 119.478 293.548C117.583 293.361 115.692 293.173 113.797 292.986C113.779 293.226 113.756 293.471 113.738 293.712ZM319.182 174.153C319.329 176.388 319.481 178.62 319.627 180.855C319.774 180.831 319.926 180.803 320.073 180.778C319.976 178.571 319.884 176.364 319.788 174.157C319.586 174.157 319.384 174.157 319.182 174.157V174.153ZM327.791 111.014C327.658 111.014 327.525 111.019 327.392 111.024C327.543 114.14 327.694 117.256 327.791 119.189V111.014ZM283.151 12.8669H292.783V12.7419H283.22L283.151 12.8669ZM91.4591 284.412H96.3645C96.3645 284.273 96.3645 284.138 96.3599 283.999H91.4683C91.4683 284.138 91.4683 284.273 91.4637 284.412H91.4591ZM251.149 217.269C248.23 219.697 246.514 222.885 245.587 226.578C245.454 227.102 245.234 227.737 244.848 228.035C242.774 229.646 241.361 231.627 240.214 234.136C238.851 237.118 236.465 238.224 232.812 237.949C223.919 237.281 214.966 237.373 206.041 237.339C188.305 237.272 170.574 237.324 152.839 237.329C148.824 237.329 144.804 237.291 140.789 237.344C139.123 237.368 137.453 237.546 135.796 237.757C135.489 237.796 135.236 238.305 134.956 238.599C135.241 238.897 135.484 239.349 135.819 239.45C136.315 239.599 136.879 239.503 137.411 239.503C152.559 239.479 167.706 239.43 182.854 239.435C200.434 239.445 218.018 239.469 235.598 239.584C237.644 239.599 238.759 238.767 239.801 237.046C241.779 233.776 244.068 230.718 246.069 227.463C248.061 224.227 249.855 220.866 251.736 217.557C251.539 217.461 251.342 217.37 251.144 217.274L251.149 217.269ZM127.174 245.749C127.912 245.898 128.647 246.177 129.385 246.181C146.497 246.35 163.613 246.58 180.725 246.6C192.61 246.614 204.499 246.297 216.384 246.191C222.731 246.133 229.077 246.239 235.423 246.215C236.304 246.215 237.539 246.201 237.997 245.643C240.567 242.517 242.953 239.224 245.399 235.988C245.243 235.853 245.092 235.718 244.936 235.584C242.871 238.002 240.875 240.498 238.7 242.801C237.952 243.59 236.754 244.345 235.744 244.364C228.526 244.522 221.303 244.441 214.085 244.522C209.666 244.575 205.247 244.917 200.833 244.898C177.297 244.792 153.756 244.604 130.221 244.465C129.216 244.46 128.211 244.619 127.206 244.7C127.197 245.047 127.183 245.398 127.174 245.744V245.749ZM241.535 244.744C250.493 232.218 259.455 219.687 268.591 206.917C256.472 217.288 249.933 231.766 241.535 244.744Z" fill="black"/>
<path d="M35.1319 359.446V374.492H66.8175V359.446H72.6177V394.11L66.8175 390.648V379.064H35.1319V394.11L29.2124 390.648V359.446H35.1319Z" fill="black"/>
<path d="M112.251 359.538C118.588 359.538 124.389 361.432 128.514 364.615C132.699 367.707 135.269 372.049 135.269 376.8C135.269 381.55 132.699 385.94 128.514 388.984C124.389 392.124 118.588 394.109 112.251 394.109H106.093C99.6963 394.109 93.9557 392.124 89.7707 388.984C85.6454 385.935 83.0757 381.55 83.0757 376.8C83.0757 372.049 85.6454 367.707 89.7707 364.615C93.9557 361.432 99.6963 359.538 106.093 359.538H112.251ZM106.093 363.875C101.371 363.875 97.0669 365.308 93.9557 367.659C90.8491 369.967 88.8163 373.246 88.8163 376.8C88.8163 380.353 90.8491 383.584 93.9557 385.94C97.0623 388.248 101.367 389.724 106.093 389.724H112.251C116.973 389.724 121.277 388.248 124.389 385.94C127.435 383.584 129.468 380.358 129.468 376.8C129.468 373.241 127.435 369.967 124.389 367.659C121.282 365.303 116.978 363.875 112.251 363.875H106.093Z" fill="black"/>
<path d="M178.605 381.646L199.589 399.139C195.285 401.125 191.935 399.37 189.127 396.971C183.028 391.984 177.049 386.907 171.015 381.829H152.004V394.105L146.144 390.643V367.885H152.004V377.439H175.558C187.273 377.439 187.273 363.913 175.558 363.913C168.684 363.913 161.631 364.005 154.812 363.913C150.687 363.913 146.8 363.269 145.726 359.437C155.652 359.528 165.573 359.437 175.558 359.437C193.073 359.437 195.643 378.867 178.605 381.637V381.646Z" fill="black"/>
<path d="M207.895 359.446V394.11L201.976 390.648V359.446H207.895Z" fill="black"/>
<path d="M257.812 363.923H226.246C222.419 363.783 218.954 362.952 218.055 359.446C227.98 359.538 251.594 359.446 261.634 359.446L257.807 363.923H257.812ZM255.66 368.399L225.411 389.676H260.441V394.11H218.055V388.849L247.111 368.404H255.66V368.399Z" fill="black"/>
<path d="M302.585 359.355C309.638 359.355 315.318 363.88 315.318 369.279C315.318 372.188 313.524 375.001 310.716 376.896C313.524 378.694 315.318 381.512 315.318 384.421C315.318 389.821 309.638 394.254 302.585 394.254H271.496V389.686H302.585C306.412 389.686 309.518 387.378 309.518 384.426C309.518 381.473 306.412 379.165 302.585 379.165H279.329V374.597H302.585C306.412 374.597 309.518 372.198 309.518 369.289C309.518 366.38 306.412 363.937 302.585 363.937H279.627C275.502 363.889 271.615 363.293 270.481 359.504L302.585 359.365V359.355Z" fill="black"/>
<path d="M331.278 366.048V394.11L325.418 390.648V359.446H331.278L364.877 387.508V359.446H370.678V394.11H364.877L331.278 366.048Z" fill="black"/>
</svg>
